<?xml version="1.0" encoding="utf-8" standalone="no"?>
<svg xmlns:svg="http://www.w3.org/2000/svg" xmlns="http://www.w3.org/2000/svg" xmlns:xlink="http://www.w3.org/1999/xlink" version="1.1" width="560" height="560" id="svg2" style="background-color:beige">
	<title>Go Regeln 4</title>
	<defs>
		<linearGradient id="linearGradient4524">
			<stop style="stop-color:black;stop-opacity:1" offset="0" />
			<stop style="stop-color:black;stop-opacity:1" offset="0.7" />
			<stop style="stop-color:black;stop-opacity:0" offset="1" />
		</linearGradient>
		<linearGradient id="linearGradient4619">
			<stop style="stop-color:#ddd;stop-opacity:1" offset="0" />
			<stop style="stop-color:black;stop-opacity:1" offset="1" />
		</linearGradient>
		<linearGradient id="linearGradient4529">
			<stop style="stop-color:white;stop-opacity:1" offset="0" />
			<stop style="stop-color:#ccc;stop-opacity:1" offset="1" />
		</linearGradient>
		<linearGradient id="linearGradient4503">
			<stop style="stop-color:black;stop-opacity:1" offset="0" />
			<stop style="stop-color:black;stop-opacity:1" offset="0.8" />
			<stop style="stop-color:black;stop-opacity:0" offset="1" />
		</linearGradient>
		<radialGradient cx="43" cy="43" r="29" fx="40" fy="40" id="radialGradient4509" xlink:href="#linearGradient4503" gradientUnits="userSpaceOnUse" />
		<radialGradient cx="40" cy="40" r="29" fx="23" fy="23" id="radialGradient4535" xlink:href="#linearGradient4529" gradientUnits="userSpaceOnUse" />
		<radialGradient cx="40" cy="40" r="29" fx="23" fy="23" id="radialGradient4625" xlink:href="#linearGradient4619" gradientUnits="userSpaceOnUse" />
		<radialGradient cx="43" cy="43" r="29" fx="43" fy="43" id="radialGradient4530" xlink:href="#linearGradient4524" gradientUnits="userSpaceOnUse" />
		<g id="Black01">
			<circle cx="43" cy="43" r="29" style="fill:url(#radialGradient4509);fill-opacity:1" />
			<circle cx="40" cy="40" r="29" style="fill:url(#radialGradient4625);fill-opacity:1;stroke:none" />
		</g>
		<g id="White01">
			<circle cx="43" cy="43" r="29" style="fill:url(#radialGradient4530);fill-opacity:1" />
			<circle cx="40" cy="40" r="29" style="fill:url(#radialGradient4535);fill-opacity:1;stroke:none" />
		</g>
	</defs>
	<polygon points="1,1 559,1 559,559 1,559" style="fill:#fbc467;stroke:#c37c05;stroke-width:2" />
	<path d="M 40,40 H 520 M 40,100 H 520 M 40,160 H 520 M 40,220 H 520 M 40,280 H 520 M 40,340 H 520 M 40,400 H 520 M 40,460 H 520 M 40,520 H 520" id="G1" style="fill:none;stroke:black;stroke-width:2" />
	<use xlink:href="#G1" transform="matrix(0,1,-1,0,560,0)" />
	<circle cx="160" cy="160" r="5" id="S1" />
	<use xlink:href="#S1" transform="translate(120,0)" />
	<use xlink:href="#S1" transform="translate(240,0)" />
	<use xlink:href="#S1" transform="translate(0,120)" />
	<use xlink:href="#S1" transform="translate(120,120)" />
	<use xlink:href="#S1" transform="translate(240,120)" />
	<use xlink:href="#S1" transform="translate(0,240)" />
	<use xlink:href="#S1" transform="translate(120,240)" />
	<use xlink:href="#S1" transform="translate(240,240)" />
	<use xlink:href="#White01" transform="translate(180,0)" />
	<use xlink:href="#Black01" transform="translate(240,0)" />
	<use xlink:href="#White01" transform="translate(180,60)" />
	<use xlink:href="#Black01" transform="translate(240,60)" />
	<use xlink:href="#Black01" transform="translate(360,60)" />
	<use xlink:href="#White01" transform="translate(0,120)" />
	<use xlink:href="#White01" transform="translate(60,120)" />
	<use xlink:href="#White01" transform="translate(120,120)" />
	<use xlink:href="#White01" transform="translate(180,120)" />
	<use xlink:href="#Black01" transform="translate(240,120)" />
	<use xlink:href="#Black01" transform="translate(300,120)" />
	<use xlink:href="#Black01" transform="translate(360,120)" />
	<use xlink:href="#Black01" transform="translate(420,120)" />
	<use xlink:href="#Black01" transform="translate(480,120)" />
	<use xlink:href="#White01" transform="translate(180,180)" />
	<use xlink:href="#White01" transform="translate(240,180)" />
	<use xlink:href="#White01" transform="translate(300,180)" />
	<use xlink:href="#Black01" transform="translate(360,180)" />
	<use xlink:href="#White01" transform="translate(60,240)" />
	<use xlink:href="#White01" transform="translate(120,240)" />
	<use xlink:href="#White01" transform="translate(240,240)" />
	<use xlink:href="#White01" transform="translate(300,240)" />
	<use xlink:href="#Black01" transform="translate(360,240)" />
	<use xlink:href="#White01" transform="translate(240,300)" />
	<use xlink:href="#Black01" transform="translate(300,300)" />
	<use xlink:href="#Black01" transform="translate(360,300)" />
	<use xlink:href="#Black01" transform="translate(420,300)" />
	<use xlink:href="#Black01" transform="translate(480,300)" />
	<use xlink:href="#White01" transform="translate(0,360)" />
	<use xlink:href="#White01" transform="translate(60,360)" />
	<use xlink:href="#White01" transform="translate(120,360)" />
	<use xlink:href="#White01" transform="translate(180,360)" />
	<use xlink:href="#White01" transform="translate(240,360)" />
	<use xlink:href="#Black01" transform="translate(300,360)" />
	<use xlink:href="#Black01" transform="translate(480,360)" />
	<use xlink:href="#Black01" transform="translate(0,420)" />
	<use xlink:href="#Black01" transform="translate(60,420)" />
	<use xlink:href="#Black01" transform="translate(120,420)" />
	<use xlink:href="#Black01" transform="translate(180,420)" />
	<use xlink:href="#White01" transform="translate(240,420)" />
	<use xlink:href="#Black01" transform="translate(300,420)" />
	<use xlink:href="#Black01" transform="translate(60,480)" />
	<use xlink:href="#Black01" transform="translate(180,480)" />
	<use xlink:href="#White01" transform="translate(240,480)" />
	<use xlink:href="#Black01" transform="translate(300,480)" />
	<use xlink:href="#Black01" transform="translate(360,480)" />
</svg>